<svg width="249" height="133" viewBox="0 0 249 133" fill="none" xmlns="http://www.w3.org/2000/svg">
<g filter="url(#filter0_df_28_4)">
<ellipse cx="124.5" cy="66.5" rx="87.5" ry="29.5" fill="#913C4A"/>
</g>
<g filter="url(#filter1_d_28_4)">
<path d="M47.124 75V53.5254H53.6133L57.5098 68.1738L61.3623 53.5254H67.8662V75H63.8379V58.0957L59.5752 75H55.4004L51.1523 58.0957V75H47.124ZM72.1436 57.334V53.5254H76.2598V57.334H72.1436ZM72.1436 75V59.4434H76.2598V75H72.1436ZM94.6436 75H90.5273V67.0605C90.5273 65.3809 90.4395 64.2969 90.2637 63.8086C90.0879 63.3105 89.7998 62.9248 89.3994 62.6514C89.0088 62.3779 88.5352 62.2412 87.9785 62.2412C87.2656 62.2412 86.626 62.4365 86.0596 62.8271C85.4932 63.2178 85.1025 63.7354 84.8877 64.3799C84.6826 65.0244 84.5801 66.2158 84.5801 67.9541V75H80.4639V59.4434H84.2871V61.7285C85.6445 59.9707 87.3535 59.0918 89.4141 59.0918C90.3223 59.0918 91.1523 59.2578 91.9043 59.5898C92.6562 59.9121 93.2227 60.3271 93.6035 60.835C93.9941 61.3428 94.2627 61.9189 94.4092 62.5635C94.5654 63.208 94.6436 64.1309 94.6436 65.332V75ZM113.101 75H109.277V72.7148C108.643 73.6035 107.891 74.2676 107.021 74.707C106.162 75.1367 105.293 75.3516 104.414 75.3516C102.627 75.3516 101.094 74.6338 99.8145 73.1982C98.5449 71.7529 97.9102 69.7412 97.9102 67.1631C97.9102 64.5264 98.5303 62.5244 99.7705 61.1572C101.011 59.7803 102.578 59.0918 104.473 59.0918C106.211 59.0918 107.715 59.8145 108.984 61.2598V53.5254H113.101V75ZM102.114 66.8848C102.114 68.5449 102.344 69.7461 102.803 70.4883C103.467 71.5625 104.395 72.0996 105.586 72.0996C106.533 72.0996 107.339 71.6992 108.003 70.8984C108.667 70.0879 108.999 68.8818 108.999 67.2803C108.999 65.4932 108.677 64.209 108.032 63.4277C107.388 62.6367 106.562 62.2412 105.557 62.2412C104.58 62.2412 103.76 62.6318 103.096 63.4131C102.441 64.1846 102.114 65.3418 102.114 66.8848Z" fill="white"/>
<path d="M116.104 68.0127L120.322 67.6025C120.576 69.0186 121.089 70.0586 121.86 70.7227C122.642 71.3867 123.691 71.7188 125.01 71.7188C126.406 71.7188 127.456 71.4258 128.159 70.8398C128.872 70.2441 129.229 69.5508 129.229 68.7598C129.229 68.252 129.077 67.8223 128.774 67.4707C128.481 67.1094 127.964 66.7969 127.222 66.5332C126.714 66.3574 125.557 66.0449 123.75 65.5957C121.426 65.0195 119.795 64.3115 118.857 63.4717C117.539 62.29 116.88 60.8496 116.88 59.1504C116.88 58.0566 117.188 57.0361 117.803 56.0889C118.428 55.1318 119.321 54.4043 120.483 53.9062C121.655 53.4082 123.066 53.1592 124.717 53.1592C127.412 53.1592 129.438 53.75 130.796 54.9316C132.163 56.1133 132.881 57.6904 132.949 59.6631L128.613 59.8535C128.428 58.75 128.027 57.959 127.412 57.4805C126.807 56.9922 125.894 56.748 124.673 56.748C123.413 56.748 122.427 57.0068 121.714 57.5244C121.255 57.8564 121.025 58.3008 121.025 58.8574C121.025 59.3652 121.24 59.7998 121.67 60.1611C122.217 60.6201 123.545 61.0986 125.654 61.5967C127.764 62.0947 129.321 62.6123 130.327 63.1494C131.343 63.6768 132.134 64.4043 132.7 65.332C133.276 66.25 133.564 67.3877 133.564 68.7451C133.564 69.9756 133.223 71.1279 132.539 72.2021C131.855 73.2764 130.889 74.0771 129.639 74.6045C128.389 75.1221 126.831 75.3809 124.966 75.3809C122.251 75.3809 120.166 74.7559 118.711 73.5059C117.256 72.2461 116.387 70.415 116.104 68.0127ZM150.747 64.043L146.689 64.7754C146.553 63.9648 146.24 63.3545 145.752 62.9443C145.273 62.5342 144.648 62.3291 143.877 62.3291C142.852 62.3291 142.031 62.6855 141.416 63.3984C140.811 64.1016 140.508 65.2832 140.508 66.9434C140.508 68.7891 140.815 70.0928 141.431 70.8545C142.056 71.6162 142.891 71.9971 143.936 71.9971C144.717 71.9971 145.356 71.7773 145.854 71.3379C146.353 70.8887 146.704 70.1221 146.909 69.0381L150.952 69.7266C150.532 71.582 149.727 72.9834 148.535 73.9307C147.344 74.8779 145.747 75.3516 143.745 75.3516C141.47 75.3516 139.653 74.6338 138.296 73.1982C136.948 71.7627 136.274 69.7754 136.274 67.2363C136.274 64.668 136.953 62.6709 138.311 61.2451C139.668 59.8096 141.504 59.0918 143.818 59.0918C145.713 59.0918 147.217 59.502 148.33 60.3223C149.453 61.1328 150.259 62.373 150.747 64.043ZM156.958 64.1895L153.223 63.5156C153.643 62.0117 154.365 60.8984 155.391 60.1758C156.416 59.4531 157.939 59.0918 159.961 59.0918C161.797 59.0918 163.164 59.3115 164.062 59.751C164.961 60.1807 165.591 60.7324 165.952 61.4062C166.323 62.0703 166.509 63.2959 166.509 65.083L166.465 69.8877C166.465 71.2549 166.528 72.2656 166.655 72.9199C166.792 73.5645 167.041 74.2578 167.402 75H163.33C163.223 74.7266 163.091 74.3213 162.935 73.7842C162.866 73.54 162.817 73.3789 162.788 73.3008C162.085 73.9844 161.333 74.4971 160.532 74.8389C159.731 75.1807 158.877 75.3516 157.969 75.3516C156.367 75.3516 155.103 74.917 154.175 74.0479C153.257 73.1787 152.798 72.0801 152.798 70.752C152.798 69.873 153.008 69.0918 153.428 68.4082C153.848 67.7148 154.434 67.1875 155.186 66.8262C155.947 66.4551 157.041 66.1328 158.467 65.8594C160.391 65.498 161.724 65.1611 162.466 64.8486V64.4385C162.466 63.6475 162.271 63.0859 161.88 62.7539C161.489 62.4121 160.752 62.2412 159.668 62.2412C158.936 62.2412 158.364 62.3877 157.954 62.6807C157.544 62.9639 157.212 63.4668 156.958 64.1895ZM162.466 67.5293C161.938 67.7051 161.104 67.915 159.961 68.1592C158.818 68.4033 158.071 68.6426 157.72 68.877C157.183 69.2578 156.914 69.7412 156.914 70.3271C156.914 70.9033 157.129 71.4014 157.559 71.8213C157.988 72.2412 158.535 72.4512 159.199 72.4512C159.941 72.4512 160.649 72.207 161.323 71.7188C161.821 71.3477 162.148 70.8936 162.305 70.3564C162.412 70.0049 162.466 69.3359 162.466 68.3496V67.5293ZM170.464 59.4434H174.302V61.7285C174.8 60.9473 175.474 60.3125 176.323 59.8242C177.173 59.3359 178.115 59.0918 179.15 59.0918C180.957 59.0918 182.49 59.7998 183.75 61.2158C185.01 62.6318 185.64 64.6045 185.64 67.1338C185.64 69.7314 185.005 71.7529 183.735 73.1982C182.466 74.6338 180.928 75.3516 179.121 75.3516C178.262 75.3516 177.48 75.1807 176.777 74.8389C176.084 74.4971 175.352 73.9111 174.58 73.0811V80.918H170.464V59.4434ZM174.536 66.958C174.536 68.7061 174.883 70 175.576 70.8398C176.27 71.6699 177.114 72.085 178.11 72.085C179.067 72.085 179.863 71.7041 180.498 70.9424C181.133 70.1709 181.45 68.9111 181.45 67.1631C181.45 65.5322 181.123 64.3213 180.469 63.5303C179.814 62.7393 179.004 62.3438 178.037 62.3438C177.031 62.3438 176.196 62.7344 175.532 63.5156C174.868 64.2871 174.536 65.4346 174.536 66.958ZM197.93 70.0488L202.031 70.7373C201.504 72.2412 200.669 73.3887 199.526 74.1797C198.394 74.9609 196.973 75.3516 195.264 75.3516C192.559 75.3516 190.557 74.4678 189.258 72.7002C188.232 71.2842 187.72 69.4971 187.72 67.3389C187.72 64.7607 188.394 62.7441 189.741 61.2891C191.089 59.8242 192.793 59.0918 194.854 59.0918C197.168 59.0918 198.994 59.8584 200.332 61.3916C201.67 62.915 202.31 65.2539 202.251 68.4082H191.938C191.968 69.6289 192.3 70.5811 192.935 71.2646C193.569 71.9385 194.36 72.2754 195.308 72.2754C195.952 72.2754 196.494 72.0996 196.934 71.748C197.373 71.3965 197.705 70.8301 197.93 70.0488ZM198.164 65.8887C198.135 64.6973 197.827 63.7939 197.241 63.1787C196.655 62.5537 195.942 62.2412 195.103 62.2412C194.204 62.2412 193.462 62.5684 192.876 63.2227C192.29 63.877 192.002 64.7656 192.012 65.8887H198.164Z" fill="#FFD700"/>
</g>
<defs>
<filter id="filter0_df_28_4" x="0" y="0" width="249" height="133" filterUnits="userSpaceOnUse" color-interpolation-filters="sRGB">
<feFlood flood-opacity="0" result="BackgroundImageFix"/>
<feColorMatrix in="SourceAlpha" type="matrix" values="0 0 0 0 0 0 0 0 0 0 0 0 0 0 0 0 0 0 127 0" result="hardAlpha"/>
<feOffset dy="4"/>
<feGaussianBlur stdDeviation="2"/>
<feComposite in2="hardAlpha" operator="out"/>
<feColorMatrix type="matrix" values="0 0 0 0 0 0 0 0 0 0 0 0 0 0 0 0 0 0 0.25 0"/>
<feBlend mode="normal" in2="BackgroundImageFix" result="effect1_dropShadow_28_4"/>
<feBlend mode="normal" in="SourceGraphic" in2="effect1_dropShadow_28_4" result="shape"/>
<feGaussianBlur stdDeviation="18.5" result="effect2_foregroundBlur_28_4"/>
</filter>
<filter id="filter1_d_28_4" x="44.124" y="49.1592" width="171.215" height="43.7588" filterUnits="userSpaceOnUse" color-interpolation-filters="sRGB">
<feFlood flood-opacity="0" result="BackgroundImageFix"/>
<feColorMatrix in="SourceAlpha" type="matrix" values="0 0 0 0 0 0 0 0 0 0 0 0 0 0 0 0 0 0 127 0" result="hardAlpha"/>
<feOffset dx="5" dy="4"/>
<feGaussianBlur stdDeviation="4"/>
<feComposite in2="hardAlpha" operator="out"/>
<feColorMatrix type="matrix" values="0 0 0 0 0 0 0 0 0 0 0 0 0 0 0 0 0 0 1 0"/>
<feBlend mode="normal" in2="BackgroundImageFix" result="effect1_dropShadow_28_4"/>
<feBlend mode="normal" in="SourceGraphic" in2="effect1_dropShadow_28_4" result="shape"/>
</filter>
</defs>
</svg>
